# xmcd
#
# Track frame offsets:
#	150
#	8577
#	19820
#	46725
#	63835
#	84690
#	106145
#	125910
#	151260
#	188587
#
# Disc length: 2708 seconds
#
# Revision: 1
# Processed by: cddbd v1.5.1PL2 Copyright (c) Steve Scherf et al.
# Submitted via: audiograbber 1.83.01
#
DISCID=700a920a
DTITLE=The Crabb Family - Alive And Kickin'
DYEAR=1996
DGENRE=Southern Gospel
TTITLE0=Living On The Edge
TTITLE1=I Wouldn't Take Nothing For My Journey Now
TTITLE2=He's Coming Back For Me
TTITLE3=Something Out Of Nothing
TTITLE4=Still Holdin' On
TTITLE5=Something Going On In The Graveyard
TTITLE6=Give Up
TTITLE7=Old Gospel Ship
TTITLE8=Where We'll Never Die
TTITLE9=Ain't No Grave
EXTD=
EXTT0=
EXTT1=
EXTT2=
EXTT3=
EXTT4=
EXTT5=
EXTT6=
EXTT7=
EXTT8=
EXTT9=
PLAYORDER=
